<svg xmlns="http://www.w3.org/2000/svg" version="1.1" xmlns:xlink="http://www.w3.org/1999/xlink" viewBox="0 0 1422 800" style="overflow: hidden; display: block;" width="1422" height="800"><defs></defs><g id="two-0" transform="matrix(1 0 0 1 0 0)" opacity="1"></g><path d="M 570.4534236628173 285.7207819003521 Q 570.4534236628173 285.7207819003521 571.4226979863862 284.7657655948842 572.3919723099551 283.8107492894164 573.5037148661346 283.0263458036582 574.6154574223141 282.24194231790005 576.0433447139874 281.31145574536845 577.4712320056607 280.3809691728368 578.6853901631902 279.3805117181821 579.8995483207196 278.3800542635274 581.4206924119424 277.28803293779004 582.9418365031652 276.1960116120527 584.6007745637096 275.387590668247 586.2597126242541 274.57916972444133 588.2194790566848 273.61457802104843 590.1792454891155 272.64998631765553 591.6031187157287 271.63199721762874 593.0269919423419 270.61400811760194 594.6723778784581 269.81583842251234 596.3177638145744 269.0176687274227 597.980795194333 268.36196650161696 599.6438265740916 267.7062642758112 600.9639379326 267.11444439021477 602.2840492911083 266.5226245046183 604.1767913671799 265.93603120132036 606.0695334432514 265.3494378980225 607.8144854512407 264.7884225719892 609.5594374592299 264.22740724595593 611.6543355960673 263.97377773257267 613.7492337329047 263.72014821918935 615.5303655313116 263.306039008265 617.3114973297187 262.8919297973406 618.7630190906307 262.6969233143301 620.2145408515428 262.50191683131953 622.1304997657489 262.4261447075087 624.0464586799552 262.3503725836979 625.8163993025651 262.3200652049677 627.586339925175 262.2897578262376 629.94172955251 262.2776332884211 632.2971191798448 262.2655087506046 634.5789666403639 262.26088849401344 636.860814100883 262.2562682374223 639.1122101663693 262.25467798402417 641.3636062318556 262.25308773062596 643.602042836993 262.2526819113368 645.8404794421302 262.2522760920476 648.0736458786005 262.2523135989285 650.3068123150707 262.25235110580934 653.2196898202646 262.5752152397889 656.1325673254586 262.89807937376844 658.6601847020561 263.3585877679773 661.1878020786537 263.8190961621862 663.545400853834 264.3362513242778 665.9029996290144 264.85340648636935 668.1371771871945 265.0652497815572 670.3713547453747 265.27709307674513 672.3432211362483 265.6970581909372 674.3150875271219 266.11702330512924 677.0456570277317 266.61081925075587 679.7762265283416 267.1046151963825 682.2361175406056 267.6384280159461 684.6960085528696 268.1722408355097 687.0237991476171 268.71984168528815 689.3515897423646 269.2674425350666 690.9464744360807 269.49344564305784 692.5413591297969 269.71944875104913 694.233241525724 270.1462239377246 695.925123921651 270.57299912440004 697.6043554490263 271.075815332884 699.2835869764017 271.578631541368 700.663921259156 272.1150185890419 702.0442555419103 272.65140563671577 703.2800554082959 273.187013934825 704.5158552746815 273.7226222329342 705.5947853100306 273.8996462413876 706.6737153453798 274.0766702498409 708.1583735312247 274.5193781580924 709.6430317170694 274.962086066344 710.6749020916834 275.46123207175845 711.7067724662975 275.96037807717283 713.0143730131712 276.4847812435412 714.3219735600449 277.0091844099095 715.5631361383823 277.5594356124493 716.8042987167197 278.1096868149892 717.7224177819587 278.66800415357915 718.6405368471977 279.2263214921691 719.6151692469034 279.7483903407599 720.5898016466092 280.2704591893506 721.9079146133417 280.8288864567877 723.2260275800743 281.3873137242248 724.7502938901972 281.9597413735014 726.2745602003201 282.532169022778 727.8093316616626 282.76496594523104 729.3441031230051 282.99776286768406 731.0335873586423 283.43924810875063 732.7230715942794 283.8807333498172 734.3992363312326 284.39316324970036 736.0754010681858 284.90559314958347 738.0502727483297 285.4411740718581 740.0251444284737 285.9767549941327 742.1458981065966 286.52691785914885 744.2666517847196 287.077080724165 746.7122057078768 287.30243110991216 749.1577596310342 287.52778149565927 751.8482774618863 287.9523619769693 754.5387952927382 288.37694245827936 757.2398060363196 288.55306071591025 759.9408167799008 288.72917897354114 763.0103737595916 288.8054958675898 766.0799307392824 288.88181276163846 768.9879053853097 288.91483779923163 771.8958800313369 288.9478628368248 775.0537796952779 288.962199456285 778.2116793592187 288.9765360757452 781.1559691800071 288.98283897456116 784.1002590007955 288.98914187337715 787.5942598907611 288.99196930361506 791.0882607807266 288.9947967338529 794.4944010995342 288.9962223786226 797.9005414183418 288.99764802339223 801.2021733580038 288.3639694005915 804.5038052976658 287.7302907777908 807.8634796812665 287.13700907852615 811.2231540648672 286.54372737926155 814.24632361931 285.9724607554765 817.2694931737528 285.4011941316915 820.1184644908049 284.52709831309255 822.9674358078568 283.6530024944936 825.8170057938639 282.95150526541977 828.6665757798711 282.25000803634595 831.1083831019935 281.3265762115214 833.5501904241157 280.40314438669685 835.5736471567714 279.6823383227886 837.597103889427 278.9615322588804 839.4192858491106 278.3344840012667 841.2414678087941 277.707435743653 842.6334786471002 277.1293084744167 844.0254894854062 276.5511812051804 845.2473845257833 275.97188448348146 846.4692795661605 275.3925877617825 847.6224460278829 274.8150385474656 848.7756124896054 274.23748933314863 849.9026971226865 273.66265905983767 851.0297817557675 273.08782878652664 851.8881075224326 272.78346129994657 852.7464332890978 272.47909381336655 853.6689060279996 272.0548129598915 854.5913787669012 271.63053210641635 855.3989678921946 271.39178009133036 856.2065570174879 271.1530280762444 857.9832724136593 270.54539600817714 859.7599878098308 269.9377639401098 859.9413312532256 269.92062615649917 860.1226746966205 269.90348837288855 860.2999970753553 269.9451527712307 860.4773194540901 269.9868171695728 860.6320550683027 270.0829214763629 860.7867906825154 270.179025783153 860.9027386725515 270.3195078521011 861.0186866625878 270.45998992104916 861.0837072432835 270.6301412424527 861.1487278239792 270.8002925638562 861.1560133233718 270.98229824944866 861.1632988227644 271.1643039350411 861.1120864471443 271.3391079414961 861.0608740715242 271.5139119479511 860.9565257701374 271.66321224964906 860.8521774687508 271.81251255134697 860.7056185362981 271.9206773672886 860.5590596038454 272.02884218323027 860.3856347992422 272.0845466286338 860.212209994639 272.14025107403734 860.030076940707 272.13766287876444 859.8479438867749 272.13507468349155 859.6761719623393 272.07446483227056 859.5044000379036 272.0138549810495 859.360973808796 271.90156934130266 859.2175475796884 271.78928370155586 859.1174838099573 271.6370786094052 859.0174200402264 271.4848735172545 858.971195432977 271.30868488602647 858.9249708257275 271.1324962547984 858.937425109541 270.9507710806918 858.9498793933543 270.76904590658523 859.0197086014276 270.60081086329984 859.0895378095009 270.43257582001445 859.2094308053157 270.295445160992 859.3293238011305 270.1583145019696 859.4867277563762 270.06664584340865 859.6441317116221 269.9749771848478 859.822566390634 269.9383682594979 860.001001069646 269.9017593341481 860.1817843144295 269.9240431061572 860.3625675592128 269.9463268781664 860.5267713163167 270.0251702307229 860.6909750734206 270.10401358327937 860.8214071661306 270.23116159655785 860.9518392588406 270.35830960983634 861.0348434126192 270.5204498532828 861.1178475663979 270.6825900967292 861.1447332244336 270.86274644405387 861.1716188824693 271.0429027913785 861.1395711092687 271.2222128254598 861.107523336068 271.40152285954116 861.0198975419447 271.56121277247763 860.9322717478215 271.7209026854141 860.7982423765515 271.8442529011672 860.6642130052815 271.96760311692026 860.4978129674168 272.04169883533933 860.3314129295522 272.1157945537584 860.3315762818495 272.1157516968741 860.3317396341467 272.1157088399898 857.8503139714237 272.78514816224924 855.3688883087007 273.4545874845087 854.3265664176786 273.873194573516 853.2842445266566 274.29180166252326 852.534987541617 274.46296820478494 851.7857305565774 274.6341347470467 850.6380405452521 275.17820807101054 849.4903505339267 275.72228139497435 848.3065695039853 276.2696735205227 847.1227884740439 276.81706564607106 845.8615295473626 277.3769580058797 844.6002706206813 277.9368503656884 843.1650296787304 278.5313949874533 841.7297887367795 279.1259396092183 839.9151595797738 279.7503876122555 838.1005304227681 280.3748356152928 836.0900209709343 281.0909536286057 834.0795115191006 281.8070716419185 831.5528701442627 282.7569059276739 829.0262287694246 283.7067402134293 826.2163406828506 284.3974232255868 823.4064525962766 285.0881062377443 820.4778344341855 285.98199691563167 817.5492162720943 286.87588759351905 814.5167575196837 287.44908447192154 811.484298767273 288.02228135032396 808.1342184146192 288.6140819436604 804.7841380619655 289.20588253699674 801.3445846847052 289.8529011197876 797.9050313074449 290.4999197025784 794.4961145788527 290.49924581213605 791.0871978502605 290.4985719216937 787.5922432794325 290.4964592690799 784.0972887086044 290.494346616466 781.1512233378655 290.489025790925 778.2051579671266 290.483704965384 775.0421808132276 290.47069164518064 771.8792036593284 290.4576783249772 768.960999855291 290.42635056336206 766.0427960512536 290.3950228017469 762.9424803106637 290.31992134471705 759.8421645700737 290.2448198876872 757.0723006225533 290.0646596721922 754.3024366750327 289.8844994566972 751.6590906302224 289.4707776482993 749.0157445854122 289.0570558399014 746.4498130221768 288.8176619680406 743.8838814589413 288.5782680961799 741.7516044602116 288.03491506094224 739.6193274614819 287.4915620257046 737.6180775869452 286.9619373658103 735.6168277124086 286.432312705916 733.9684217703797 285.94610824828317 732.3200158283507 285.4599037906503 730.7102172623388 285.0594341383428 729.100418696327 284.6589644860353 727.3954908208389 284.41842278931324 725.6905629453508 284.1778810925912 724.1152437294755 283.6365708143969 722.5399245136002 283.09526053620266 721.0881315092339 282.5409009809601 719.6363385048676 281.9865414257175 718.6167815332378 281.398020056767 717.5972245616082 280.80949868781653 716.838679354679 280.2623942915439 716.0801341477498 279.71528989527127 714.8838947506731 279.17232178715096 713.6876553535965 278.6293536790306 712.2757384422348 278.0892078326093 710.8638215308731 277.54906198618806 710.0200637408893 277.0511597917023 709.1763059509057 276.55325759721654 707.755494403184 276.1577014591727 706.3346828554622 275.7621453211288 705.1004499607286 275.47455634496237 703.8662170659949 275.186967368796 702.6747440626542 274.62936864427047 701.4832710593136 274.071769919745 700.1679210736861 273.5436368676304 698.8525710880585 273.01550381551584 697.2044795379455 272.5213398546906 695.5563879878325 272.0271758938654 693.942511350331 271.6158471062241 692.3286347128295 271.20451831858287 690.6685818772929 270.9662850819042 689.0085290417563 270.72805184522554 686.6931065334367 270.1833318840159 684.377684025117 269.63861192280626 681.9433771857248 269.10998984645585 679.5090703463327 268.58136777010543 676.7548896456651 268.0830486199922 674.0007089449975 267.584729469879 672.1137536306596 267.1780791301703 670.2267983163217 266.77142879046164 667.904631834666 266.54602626523524 665.5824653530103 266.3206237400088 663.2502640723727 265.80896520700776 660.9180627917351 265.29730667400673 658.441865957263 264.8448499687791 655.9656691227907 264.39239326355147 653.1358755810281 264.0748359405617 650.3060820392656 263.75727861757196 648.073636769432 263.75821511471804 645.8411914995985 263.7591516118641 643.603233315547 263.7608610637873 641.3652751314953 263.7625705157105 639.1149870250388 263.7659573710472 636.8646989185823 263.76934422638396 634.5853577771497 263.7764348138751 632.3060166357171 263.78352540136615 629.9602072375496 263.7989557908019 627.6143978393823 263.8143861802377 625.8614761524464 263.8489139244541 624.1085544655103 263.88344166867046 622.2586620355646 263.960222775322 620.4087696056188 264.0370038819736 619.0304741240868 264.2009461765216 617.652178642555 264.36488847106966 615.7903803656802 264.79536461910664 613.9285820888056 265.2258407671436 611.9751990685002 265.4516979152411 610.0218160481948 265.6775550633385 608.2724100772912 266.2447436466716 606.5230041063876 266.81193223000474 604.7169638516084 267.3722046423346 602.9109235968293 267.93247705466445 601.5590271559554 268.53139172858744 600.2071307150815 269.1303064025105 598.598548356174 269.76860083386896 596.9899659972666 270.4068952652275 595.4606736971834 271.14565058033133 593.9313813971004 271.8844058954351 592.4086599227296 272.97497921886446 590.8859384483588 274.0655525422938 588.9280868918015 275.0467794633703 586.9702353352442 276.02800638444677 585.4422581654953 276.7824774792593 583.9142809957464 277.5369485740718 582.4600374587053 278.6145885622017 581.0057939216643 279.6922285503316 579.7422764557053 280.78135181523135 578.4787589897463 281.8704750801311 577.0923672983035 282.8411442993589 575.7059756068608 283.8118135185868 574.7191217046052 284.4852130533059 573.7322678023496 285.15861258802505 572.7791315424224 286.1259893184458 571.8259952824952 287.09336604886664 571.733900756913 287.16551625206023 571.6418062313307 287.2376664552539 571.535120762146 287.28567962144734 571.4284352929612 287.33369278764087 571.3133594446556 287.3547783893591 571.1982835963498 287.37586399107744 571.0815055826336 287.36879653215794 570.9647275689173 287.3617290732385 570.8530345334344 287.3269193147257 570.7413414979516 287.29210955621295 570.6412250451722 287.23158064290715 570.5411085923929 287.1710517296014 570.4583874952566 287.0883216047879 570.3756663981203 287.0055914799743 570.3151484106792 286.9054684223943 570.254630423238 286.8053453648143 570.2198328537656 286.69364853127854 570.1850352842933 286.5819516977428 570.1779805691624 286.46517291346447 570.1709258540315 286.3483941291862 570.1920240136168 286.2333205825944 570.2131221732021 286.11824703600263 570.2611469814774 286.011566807032 570.3091717897526 285.9048865780614 570.3813320426043 285.812799926632 570.453492295456 285.7207132752027 570.4534579791366 285.7207475877774 Z" fill="hsl(197 71% 73%)"></path></svg>